<?xml version="1.0" encoding="UTF-8"?>
<svg width="38px" height="37px" viewBox="0 0 38 37" version="1.1" xmlns="http://www.w3.org/2000/svg" xmlns:xlink="http://www.w3.org/1999/xlink">
    <title>book</title>
    <g id="Final" stroke="none" stroke-width="1" fill="none" fill-rule="evenodd">
        <g id="[IMT]-Enseignant---Tableau-de-bord" transform="translate(-357.000000, -238.000000)" fill-rule="nonzero">
            <g id="Group-6" transform="translate(270.000000, 122.000000)">
                <g id="Button" transform="translate(0.000000, 97.000000)">
                    <g id="book" transform="translate(87.500000, 19.000000)">
                        <path d="M24.7472098,32.6428571 C25.6419271,32.6428571 26.485026,32.343471 27.2765067,31.7446987 C28.0679874,31.1459263 28.594494,30.406064 28.8560268,29.5251116 L28.8560268,29.5251116 L34.5340402,10.8186384 C34.8368676,9.82756696 34.7129836,8.93973214 34.1623884,8.15513393 C33.8733259,7.76971726 33.4672619,7.47377232 32.9441964,7.26729911 C32.9717262,7.74906994 32.937314,8.14136905 32.8409598,8.44419643 L32.8409598,8.44419643 L26.6467634,28.8231027 C26.5366443,29.1809896 26.2957589,29.4666109 25.9241071,29.6799665 C25.5524554,29.8933222 25.1670387,30 24.7678571,30 L24.7678571,30 L5.71037946,30 C4.05859375,30 3.06752232,29.5182292 2.73716518,28.5546875 C2.59951637,28.1830357 2.60639881,27.8870908 2.7578125,27.6668527 C2.90922619,27.4603795 3.17075893,27.3571429 3.54241071,27.3571429 L3.54241071,27.3571429 L21.484933,27.3571429 C22.765067,27.3571429 23.6494606,27.1196987 24.1381138,26.6448103 C24.6267671,26.1699219 25.1188616,25.1134673 25.6143973,23.4754464 L25.6143973,23.4754464 L31.2717634,4.76897321 C31.5745908,3.75037202 31.4507068,2.85565476 30.9001116,2.08482143 C30.3495164,1.3139881 29.5649182,0.928571429 28.546317,0.928571429 L28.546317,0.928571429 L12.8337054,0.928571429 C12.6547619,0.928571429 12.3037574,0.990513393 11.780692,1.11439732 L11.780692,1.11439732 L11.8013393,1.05245536 C11.4159226,0.969866071 11.0890067,0.932012649 10.8205915,0.938895089 C10.5521763,0.94577753 10.3044085,1.0249256 10.0772879,1.17633929 C9.85016741,1.32775298 9.66778274,1.48949033 9.53013393,1.66155134 C9.39248512,1.83361235 9.25827753,2.05385045 9.12751116,2.32226563 C8.99674479,2.5906808 8.88662574,2.83844866 8.79715402,3.0655692 C8.70768229,3.29268973 8.60444568,3.53357515 8.4874442,3.78822545 C8.37044271,4.04287574 8.25688244,4.25279018 8.14676339,4.41796875 C8.06417411,4.5280878 7.94717262,4.67261905 7.79575893,4.8515625 C7.64434524,5.03050595 7.52046131,5.18880208 7.42410714,5.32645089 C7.32775298,5.4640997 7.26581101,5.58798363 7.23828125,5.69810268 C7.21075149,5.82198661 7.22451637,6.00437128 7.27957589,6.2452567 C7.33463542,6.48614211 7.35528274,6.66164435 7.34151786,6.77176339 C7.28645833,7.29482887 7.09719122,7.95898438 6.77371652,8.76422991 C6.45024182,9.56947545 6.1577381,10.1510417 5.89620536,10.5089286 C5.84114583,10.577753 5.68973214,10.7326079 5.44196429,10.9734933 C5.19419643,11.2143787 5.04278274,11.4242932 4.98772321,11.6032366 C4.93266369,11.672061 4.92922247,11.8647693 4.97739955,12.1813616 C5.02557664,12.4979539 5.04278274,12.718192 5.02901786,12.8420759 C4.97395833,13.3100818 4.80189732,13.9295015 4.51283482,14.7003348 C4.22377232,15.4711682 3.93470982,16.1043527 3.64564732,16.5998884 C3.60435268,16.6824777 3.48735119,16.8407738 3.29464286,17.0747768 C3.10193452,17.3087798 2.98493304,17.5014881 2.94363839,17.6529018 C2.91610863,17.7630208 2.91954985,17.9557292 2.95396205,18.2310268 C2.98837426,18.5063244 2.98493304,18.7127976 2.94363839,18.8504464 C2.83351935,19.3735119 2.62704613,20.0032552 2.32421875,20.7396763 C2.02139137,21.4760975 1.71168155,22.1058408 1.39508929,22.6289063 C1.3125,22.7665551 1.19893973,22.9282924 1.05440848,23.1141183 C0.909877232,23.2999442 0.796316964,23.4616815 0.713727679,23.5993304 C0.631138393,23.7369792 0.576078869,23.8815104 0.548549107,24.0329241 C0.534784226,24.1155134 0.555431548,24.249721 0.610491071,24.4355469 C0.665550595,24.6213728 0.686197917,24.7693452 0.672433036,24.8794643 C0.658668155,25.0721726 0.631138393,25.3268229 0.58984375,25.6434152 C0.548549107,25.9600074 0.527901786,26.1458333 0.527901786,26.2008929 C0.225074405,27.0267857 0.238839286,27.9008557 0.569196429,28.8231027 C0.954613095,29.8967634 1.63941592,30.8018043 2.62360491,31.5382254 C3.6077939,32.2746466 4.62983631,32.6428571 5.68973214,32.6428571 L5.68973214,32.6428571 L24.7472098,32.6428571 Z M25.2014509,8.85714286 L12.6478795,8.85714286 C12.4551711,8.85714286 12.3175223,8.79175967 12.234933,8.6609933 C12.1523437,8.53022693 12.1385789,8.37537202 12.1936384,8.19642857 L12.1936384,8.19642857 L12.6272321,6.875 C12.6822917,6.69605655 12.7958519,6.54120164 12.9679129,6.41043527 C13.139974,6.2796689 13.3154762,6.21428571 13.4944196,6.21428571 L13.4944196,6.21428571 L26.0479911,6.21428571 C26.2406994,6.21428571 26.3783482,6.2796689 26.4609375,6.41043527 C26.5435268,6.54120164 26.5572917,6.69605655 26.5022321,6.875 L26.5022321,6.875 L26.0686384,8.19642857 C26.0135789,8.37537202 25.9000186,8.53022693 25.7279576,8.6609933 C25.5558966,8.79175967 25.3803943,8.85714286 25.2014509,8.85714286 L25.2014509,8.85714286 Z M23.4877232,14.1428571 L10.9341518,14.1428571 C10.7414435,14.1428571 10.6037946,14.077474 10.5212054,13.9467076 C10.4386161,13.8159412 10.4248512,13.6610863 10.4799107,13.4821429 L10.4799107,13.4821429 L10.9135045,12.1607143 C10.968564,11.9817708 11.0821243,11.8269159 11.2541853,11.6961496 C11.4262463,11.5653832 11.6017485,11.5 11.780692,11.5 L11.780692,11.5 L24.3342634,11.5 C24.5269717,11.5 24.6646205,11.5653832 24.7472098,11.6961496 C24.8297991,11.8269159 24.843564,11.9817708 24.7885045,12.1607143 L24.7885045,12.1607143 L24.3549107,13.4821429 C24.2998512,13.6610863 24.1862909,13.8159412 24.0142299,13.9467076 C23.8421689,14.077474 23.6666667,14.1428571 23.4877232,14.1428571 L23.4877232,14.1428571 Z" id="" fill="#00B8DE"></path>
                        <path d="M28.5,19.8928571 C29.9586542,19.8928571 31.3034642,20.2534625 32.5351044,20.9722101 C33.7650796,21.6899859 34.7390405,22.6655315 35.4558937,23.8974101 C36.1748714,25.1259545 36.5357143,26.469427 36.5357143,27.9285714 C36.5357143,29.3872256 36.1751089,30.7320357 35.4563614,31.9636758 C34.7386763,33.1934954 33.764924,34.1672477 32.5351044,34.8849328 C31.3034642,35.6036803 29.9586542,35.9642857 28.5,35.9642857 C27.0413458,35.9642857 25.6965358,35.6036803 24.4648956,34.8849328 C23.235076,34.1672477 22.2613237,33.1934954 21.5436386,31.9636758 C20.8248911,30.7320357 20.4642857,29.3872256 20.4642857,27.9285714 C20.4642857,26.4699173 20.8248911,25.1251072 21.5436386,23.893467 C22.2613237,22.6636475 23.235076,21.6898951 24.4648956,20.9722101 C25.6965358,20.2534625 27.0413458,19.8928571 28.5,19.8928571 Z" id="Path" stroke="#FFFFFF" stroke-width="1.5" fill="#00B8DE"></path>
                        <path d="M29.1071429,32.1785714 L27.8928571,32.1785714 C27.7284226,32.1785714 27.5861235,32.1184896 27.4659598,31.9983259 C27.3457961,31.8781622 27.2857143,31.7358631 27.2857143,31.5714286 L27.2857143,31.5714286 L27.2857143,29.1428571 L24.8571429,29.1428571 C24.6927083,29.1428571 24.5504092,29.0827753 24.4302455,28.9626116 C24.3100818,28.8424479 24.25,28.7001488 24.25,28.5357143 L24.25,28.5357143 L24.25,27.3214286 C24.25,27.156994 24.3100818,27.0146949 24.4302455,26.8945313 C24.5504092,26.7743676 24.6927083,26.7142857 24.8571429,26.7142857 L24.8571429,26.7142857 L27.2857143,26.7142857 L27.2857143,24.2857143 C27.2857143,24.1212798 27.3457961,23.9789807 27.4659598,23.858817 C27.5861235,23.7386533 27.7284226,23.6785714 27.8928571,23.6785714 L27.8928571,23.6785714 L29.1071429,23.6785714 C29.2715774,23.6785714 29.4138765,23.7386533 29.5340402,23.858817 C29.6542039,23.9789807 29.7142857,24.1212798 29.7142857,24.2857143 L29.7142857,24.2857143 L29.7142857,26.7142857 L32.1428571,26.7142857 C32.3072917,26.7142857 32.4495908,26.7743676 32.5697545,26.8945313 C32.6899182,27.0146949 32.75,27.156994 32.75,27.3214286 L32.75,27.3214286 L32.75,28.5357143 C32.75,28.7001488 32.6899182,28.8424479 32.5697545,28.9626116 C32.4495908,29.0827753 32.3072917,29.1428571 32.1428571,29.1428571 L32.1428571,29.1428571 L29.7142857,29.1428571 L29.7142857,31.5714286 C29.7142857,31.7358631 29.6542039,31.8781622 29.5340402,31.9983259 C29.4138765,32.1184896 29.2715774,32.1785714 29.1071429,32.1785714 L29.1071429,32.1785714 Z" id="Path" fill="#FFFFFF"></path>
                    </g>
                </g>
            </g>
        </g>
    </g>
</svg>