<?xml version="1.0" encoding="UTF-8"?>
<svg width="36px" height="36px" viewBox="0 0 36 36" version="1.1" xmlns="http://www.w3.org/2000/svg" xmlns:xlink="http://www.w3.org/1999/xlink">
    <title>bubbles</title>
    <g id="Final" stroke="none" stroke-width="1" fill="none" fill-rule="evenodd">
        <g id="[IMT]-Enseignant---Tableau-de-bord" transform="translate(-1044.000000, -238.000000)">
            <rect fill="#FAFAFA" x="0" y="0" width="1440" height="2354"></rect>
            <g id="Group-6" transform="translate(270.000000, 122.000000)">
                <g id="Button-Copy-2" transform="translate(690.000000, 97.000000)">
                    <rect id="Fill" stroke="#00B8DE" x="0.5" y="0.5" width="209" height="107"></rect>
                    <g id="bubbles" transform="translate(84.000000, 19.000000)" fill="#00B8DE" fill-rule="nonzero">
                        <path d="M3.29464286,26.9072832 C3.96428571,26.8144875 4.54017857,26.7084353 5.02232143,26.5891265 C7.08482143,26.0588653 8.94642857,25.2104474 10.6071429,24.0438728 C11.8125,24.2559773 12.9910714,24.3620295 14.1428571,24.3620295 C16.7008929,24.3620295 19.0680804,23.9079934 21.2444196,22.9999211 C23.4207589,22.0918488 25.1383929,20.8556774 26.3973214,19.2914069 C27.65625,17.7271364 28.2857143,16.0236724 28.2857143,14.1810148 C28.2857143,12.3383571 27.65625,10.6348931 26.3973214,9.07062258 C25.1383929,7.50635209 23.4207589,6.2701807 21.2444196,5.36210842 C19.0680804,4.45403614 16.7008929,4 14.1428571,4 C11.5848214,4 9.21763393,4.45403614 7.04129464,5.36210842 C4.86495536,6.2701807 3.14732143,7.50635209 1.88839286,9.07062258 C0.629464286,10.6348931 0,12.3383571 0,14.1810148 C0,15.7585418 0.475446429,17.2432731 1.42633929,18.6352087 C2.37723214,20.0271443 3.68303571,21.2003472 5.34375,22.1548173 C5.20982143,22.472974 5.07254464,22.7646177 4.93191964,23.0297483 C4.79129464,23.2948789 4.62388393,23.5500671 4.4296875,23.7953129 C4.23549107,24.0405587 4.08482143,24.2327783 3.97767857,24.3719719 C3.87053571,24.5111655 3.69642857,24.7066993 3.45535714,24.9585733 C3.21428571,25.2104474 3.06026786,25.376154 2.99330357,25.4556932 C2.97991071,25.4689497 2.953125,25.4987769 2.91294643,25.5451748 C2.87276786,25.5915726 2.84263393,25.624714 2.82254464,25.6445988 C2.80245536,25.6644835 2.77566964,25.6976249 2.7421875,25.7440227 C2.70870536,25.7904206 2.68526786,25.826876 2.671875,25.8533891 C2.65848214,25.8799022 2.64174107,25.9130435 2.62165179,25.9528131 C2.6015625,25.9925827 2.58816964,26.0323522 2.58147321,26.0721218 C2.57477679,26.1118914 2.57142857,26.1549751 2.57142857,26.201373 C2.57142857,26.2477709 2.578125,26.2908546 2.59151786,26.3306242 C2.61830357,26.502959 2.6953125,26.6421526 2.82254464,26.7482048 C2.94977679,26.8542571 3.08705357,26.9072832 3.234375,26.9072832 L3.234375,26.9072832 L3.29464286,26.9072832 Z M32.7053571,31.9977906 C32.8660714,32.0110471 33.0133929,31.9646493 33.1473214,31.858597 C33.28125,31.7525448 33.3683036,31.606723 33.4084821,31.4211315 C33.421875,31.381362 33.4285714,31.3382782 33.4285714,31.2918804 C33.4285714,31.2454825 33.4252232,31.2023988 33.4185268,31.1626292 C33.4118304,31.1228596 33.3984375,31.08309 33.3783482,31.0433204 C33.3582589,31.0035509 33.3415179,30.9704095 33.328125,30.9438965 C33.3147321,30.9173834 33.2912946,30.880928 33.2578125,30.8345301 C33.2243304,30.7881322 33.1975446,30.7549909 33.1774554,30.7351061 C33.1573661,30.7152213 33.1272321,30.68208 33.0870536,30.6356822 C33.046875,30.5892843 33.0200893,30.5594571 33.0066964,30.5462006 C32.9397321,30.4666614 32.7857143,30.3009548 32.5446429,30.0490807 C32.3035714,29.7972067 32.1294643,29.6016728 32.0223214,29.4624793 C31.9151786,29.3232857 31.7645089,29.131066 31.5703125,28.8858202 C31.3761161,28.6405744 31.2087054,28.3853863 31.0680804,28.1202557 C30.9274554,27.8551251 30.7901786,27.5634814 30.65625,27.2453247 C32.3169643,26.2908546 33.6227679,25.1209658 34.5736607,23.7356585 C35.5245536,22.3503511 36,20.8623057 36,19.2715221 C36,17.640969 35.4977679,16.1164681 34.4933036,14.6980194 C33.4888393,13.2795707 32.1227679,12.0997396 30.3950893,11.158526 C30.703125,12.1527657 30.8571429,13.160262 30.8571429,14.1810148 C30.8571429,15.9573897 30.4084821,17.640969 29.5111607,19.2317525 C28.6138393,20.8225361 27.328125,22.2277282 25.6540179,23.447329 C24.1004464,24.5608775 22.3325893,25.4159236 20.3504464,26.0124675 C18.3683036,26.6090113 16.2991071,26.9072832 14.1428571,26.9072832 C13.7410714,26.9072832 13.1517857,26.8807701 12.375,26.827744 C15.0669643,28.5776059 18.2276786,29.4525369 21.8571429,29.4525369 C23.0089286,29.4525369 24.1875,29.3464847 25.3928571,29.1343802 C27.0535714,30.3009548 28.9151786,31.1493727 30.9776786,31.6796339 C31.4598214,31.7989426 32.0357143,31.9049949 32.7053571,31.9977906 Z" id="icon"></path>
                    </g>
                </g>
            </g>
        </g>
    </g>
</svg>