<?xml version="1.0" encoding="UTF-8"?>
<svg width="36px" height="36px" viewBox="0 0 36 36" version="1.1" xmlns="http://www.w3.org/2000/svg" xmlns:xlink="http://www.w3.org/1999/xlink">
    <title>globe-glass</title>
    <g id="Final" stroke="none" stroke-width="1" fill="none" fill-rule="evenodd">
        <g id="[IMT]-Enseignant---Tableau-de-bord" transform="translate(-813.000000, -243.000000)" fill="#00B8DE" fill-rule="nonzero">
            <g id="Group-6" transform="translate(270.000000, 122.000000)">
                <g id="Button-Copy-3" transform="translate(460.000000, 97.000000)">
                    <g id="globe-glass" transform="translate(83.000000, 24.000000)">
                        <path d="M21.225,0.1875 C13.5375,0.1875 7.275,6.45 7.275,14.1375 C7.275,14.25 7.275,14.325 7.275,14.4375 C7.3875,14.4375 7.5,14.4375 7.6125,14.4375 C8.1375,14.4375 8.7,14.475 9.225,14.5875 C9.225,14.4375 9.225,14.2875 9.225,14.175 C9.225,11.025 10.4625,8.1375 12.45,6 C12.525,6.0375 12.6375,6.1125 12.75,6.1875 C12.825,6.2625 12.8625,6.8625 12.825,7.4625 L12.825,7.5 L12.825,7.5 C12.825,7.5 13.35,8.7375 12.8625,9.7125 C12.3375,10.7625 12.45,12.45 12.7125,12.8625 C12.9375,13.2 14.1,14.6625 14.25,14.85 C14.3625,15 14.775,16.05 14.8125,16.2 C14.85,16.35 15.6,17.25 16.3875,17.25 C16.8375,17.25 17.3625,17.5125 17.7375,17.6625 C17.925,17.775 18.0375,17.8125 18.15,17.8125 C18.1875,17.8125 18.225,17.8875 18.2625,17.9625 C18.375,18.15 18.5625,18.45 18.975,18.675 C19.0875,18.75 19.2,18.825 19.3125,18.8625 C19.725,19.0875 20.2875,19.3875 20.325,19.5 C20.325,19.5375 20.25,19.65 20.175,19.725 C19.9125,20.025 19.5,20.5125 19.6125,21.15 C19.7625,22.05 21.0375,23.1375 21.45,23.4 C21.7125,23.5875 21.6,25.425 21.45,25.7625 C21.375,25.8375 21.375,25.9875 21.375,26.175 C21.3375,26.175 21.3,26.175 21.225,26.175 C19.8,26.175 18.45,25.9125 17.175,25.4625 C17.1,26.1 16.9125,26.7375 16.725,27.3375 C18.15,27.825 19.65,28.0875 21.225,28.0875 C28.9125,28.0875 35.175,21.825 35.175,14.1375 C35.175,6.45 28.9125,0.1875 21.225,0.1875 Z M31.725,20.025 C30.075,22.9875 27.1875,25.1625 23.775,25.9125 C23.8875,25.8 24,25.6875 24,25.6125 C24,25.575 24.15,25.5375 24.225,25.4625 C24.4125,25.35 24.6375,25.2375 24.7125,25.0875 C24.8625,24.8625 25.2375,24.45 25.425,24.375 C25.65,24.2625 27.075,22.95 27.1875,22.7625 C27.4125,22.2375 27.7125,21.6375 27.9,21.525 C28.2,21.2625 27.9375,20.8125 27.825,20.625 L27.7875,20.5875 C27.675,20.4 26.85,20.2875 26.7375,20.325 C26.5875,20.325 25.9125,19.95 25.8375,19.8375 C25.8375,19.6125 25.1625,18.9375 24.975,18.9375 C24.9,18.9375 24.4875,18.8625 24.2625,18.5625 C24,18.225 23.0625,18.0375 22.7625,18.0375 C22.5,18.0375 22.125,18 21.8625,17.85 C21.6,17.7375 21.225,17.8875 20.8125,18.075 C20.7375,18.1125 20.6625,18.15 20.5875,18.15 C20.4375,18.1875 19.65,18.0375 19.4625,17.9625 C19.3875,17.925 19.3875,17.5875 19.35,17.4375 C19.35,17.2125 19.3125,17.1 19.275,17.025 C19.2,16.9125 19.0125,16.875 18.675,16.7625 C18.5625,16.725 18.45,16.6875 18.4125,16.6875 C18.4125,16.65 18.4875,16.5375 18.4875,16.4625 C18.6375,16.1625 18.675,15.975 18.6375,15.825 C18.6,15.7875 18.5625,15.75 18.4875,15.7125 C18.3,15.675 18.075,15.8625 17.8125,16.05 C17.7,16.125 17.5125,16.275 17.475,16.275 C17.325,16.275 16.9875,16.125 16.6125,15.9 C16.3875,15.75 16.65,15.075 16.7625,14.7375 C16.8375,14.5875 16.875,14.4375 16.875,14.3625 C16.875,14.2875 17.2875,14.175 17.85,14.175 C18,14.175 18.225,14.1375 18.45,14.1 C18.6375,14.0625 18.825,14.025 18.9375,14.025 C19.0125,14.025 19.1625,14.25 19.275,14.4 C19.425,14.625 19.5375,14.775 19.6875,14.775 C19.9125,14.7375 19.9125,14.4375 19.875,14.2125 C19.875,14.1375 19.875,14.0625 19.875,14.025 C19.9125,13.875 20.2125,13.3875 20.4375,13.2375 C20.7375,13.05 21.1125,12.525 21,12.225 C21,12.1125 21.525,11.775 21.675,11.6625 C21.75,11.625 21.825,11.55 21.8625,11.5125 C21.9,11.475 21.975,11.4375 22.0125,11.4 C22.2,11.325 22.425,11.175 22.425,10.875 C22.425,10.6875 22.9875,10.6125 23.325,10.575 C23.4,10.575 23.475,10.5375 23.55,10.5375 C23.775,10.5 23.8875,10.425 23.925,10.35 C24,10.2375 23.925,10.0875 23.85,9.9375 C23.85,9.9 23.8125,9.8625 23.8125,9.7875 C23.7,9.525 23.775,9.3375 24,9.15 C24.1125,9.075 24.3375,9.0375 24.525,9.0375 C24.75,9 25.0125,8.9625 25.2375,8.8875 C25.3875,8.8125 25.5,8.7375 25.5375,8.625 C25.575,8.475 25.4625,8.3625 25.3875,8.25 C25.35,8.2125 25.3125,8.175 25.3125,8.1 C25.2,7.8375 24.975,7.6875 24.825,7.575 C24.75,7.5 24.675,7.1625 24.6375,6.975 C24.6,6.825 24.6,6.7125 24.5625,6.6375 C24.525,6.5625 24.4875,6.4875 24.4125,6.4875 C24.225,6.4125 23.925,6.525 23.775,6.6 C23.775,6.5625 23.775,6.4875 23.7375,6.45 C23.7,6.3375 23.7,6.1875 23.625,6.15 C23.5875,6.1125 23.475,6 23.3625,5.8875 C23.175,5.7375 22.95,5.5125 22.8375,5.4 C22.7625,5.325 22.65,5.2875 22.6125,5.325 C22.425,5.3625 22.2375,5.5875 22.0875,5.85 C22.05,5.8875 22.05,5.925 22.05,5.925 C21.7875,6.3375 21.75,6.6 21.9375,6.75 C21.9375,6.75 21.975,6.825 21.9,6.9375 C21.825,7.125 21.675,7.275 21.6,7.275 C21.6,7.275 21.6,7.275 21.6,7.275 C21.375,7.275 21.3,7.575 21.225,7.875 C21.225,7.9875 21.1875,8.175 21.15,8.25 C21.075,8.2125 21.0375,8.025 21.0375,7.4625 L21.0375,7.3875 C21.0375,7.3125 21,7.2375 20.9625,7.2375 C20.8875,7.1625 20.8125,7.1625 20.7,7.2 C20.5875,7.2 20.55,7.2 20.5125,7.1625 C20.3625,6.9375 19.725,6.7125 19.5,6.6 C19.5,6.2625 19.5,5.8875 19.5,5.85 C19.575,5.7375 20.5875,5.0625 20.8125,4.9875 C21.1125,4.875 21.9375,4.35 22.0875,4.2375 C22.2375,4.125 22.2375,4.0125 22.2375,3.975 C22.2,3.7125 21.75,3.525 21.5625,3.45 C21.4125,3.1125 21.1875,3.1125 20.8875,3.1125 C20.7375,3.1125 20.5875,3.1125 20.4,3.075 C19.65,2.9625 19.0125,2.925 18.525,3 C18.15,3.0375 17.7375,2.9625 17.4,2.8875 C17.2125,2.85 17.0625,2.8125 16.95,2.8125 C18.3,2.2875 19.725,1.9875 21.2625,1.9875 C22.9125,1.9875 24.4875,2.325 25.9125,2.925 C25.95,3.075 25.9875,3.1875 26.0625,3.3 C26.2125,3.6375 26.475,4.2375 26.475,4.6875 C26.475,5.1375 26.5125,5.625 26.475,5.775 C26.4375,5.925 27.375,6.975 27.6,7.0125 C27.825,7.05 27.9375,6.9 28.0875,6.675 C28.2375,6.45 28.3875,6.225 28.7625,5.925 C29.1,5.6625 29.85,5.7375 30.075,5.775 C30.45,6.1875 30.825,6.6375 31.1625,7.125 C31.0875,7.2 31.0125,7.2375 30.975,7.275 C30.7875,7.4625 30.3,7.95 30.375,8.325 C30.45,8.7 30.825,9.15 31.3125,9.4125 C31.8,9.675 31.875,10.1625 31.875,10.2375 C31.875,10.3125 32.55,10.7625 32.55,10.7625 C32.55,10.7625 32.2875,11.325 32.1375,11.325 C31.9875,11.325 31.875,11.8875 31.875,12.1125 C31.875,12.3375 32.1375,12.75 32.475,12.975 C32.775,13.2 33.2625,12.5625 33.2625,12.5625 C33.3,12.9375 33.3375,13.3125 33.3375,13.65 C33.0375,13.65 32.5125,13.875 32.3625,14.025 C32.175,14.2125 31.725,15.6 31.5375,15.75 C31.35,15.9 30.9375,17.8125 30.9,18.0375 C30.75,18.4125 31.35,20.025 31.725,20.025 Z" id="Shape"></path>
                        <path d="M7.6125,20.0625 C7.0875,20.0625 6.6375,20.5125 6.6375,21.0375 C6.6375,21.5625 7.0875,22.0125 7.6125,22.0125 C8.775,22.0125 9.7125,22.95 9.7125,24.1125 C9.7125,24.6375 10.1625,25.0875 10.6875,25.0875 C11.2125,25.0875 11.6625,24.6375 11.6625,24.1125 C11.625,21.8625 9.825,20.0625 7.6125,20.0625 Z" id="Path"></path>
                        <path d="M13.8375,28.3875 C14.7,27.15 15.1875,25.6875 15.1875,24.075 C15.1875,19.9125 11.8125,16.5375 7.65,16.5375 C3.4875,16.5375 0.1125,19.9125 0.1125,24.075 C0.1125,28.2375 3.4875,31.6125 7.65,31.6125 C9.2625,31.6125 10.725,31.125 11.9625,30.2625 L16.3875,35.25 C17.025,35.9625 18.15,36 18.8625,35.325 C19.5375,34.65 19.5375,33.525 18.7875,32.85 L13.8375,28.3875 Z M7.6125,29.7375 C4.5,29.7375 1.9875,27.225 1.9875,24.1125 C1.9875,21 4.5,18.4875 7.6125,18.4875 C10.725,18.4875 13.2375,21 13.2375,24.1125 C13.2375,27.225 10.725,29.7375 7.6125,29.7375 Z" id="Shape"></path>
                    </g>
                </g>
            </g>
        </g>
    </g>
</svg>