<?xml version="1.0" encoding="UTF-8"?>
<svg width="37px" height="37px" viewBox="0 0 37 37" version="1.1" xmlns="http://www.w3.org/2000/svg" xmlns:xlink="http://www.w3.org/1999/xlink">
    <title>hand-leaf</title>
    <g id="Final" stroke="none" stroke-width="1" fill="none" fill-rule="evenodd">
        <g id="[IMT]-Enseignant---Tableau-de-bord" transform="translate(-583.000000, -242.000000)">
            <rect fill="#FAFAFA" x="0" y="0" width="1440" height="2354"></rect>
            <g id="Group-6" transform="translate(270.000000, 122.000000)">
                <g id="Button-Copy" transform="translate(230.000000, 97.000000)">
                    <rect id="Fill" stroke="#00B8DE" x="0.5" y="0.5" width="209" height="107"></rect>
                    <g id="hand-leaf" transform="translate(84.000000, 23.000000)" fill="#00B8DE" fill-rule="nonzero">
                        <g id="Group-2" transform="translate(0.000000, 7.000000)">
                            <path d="M29.0027276,18.4297959 C28.7694623,17.9246939 28.3712582,17.541551 27.887095,17.2877143 C27.2420337,16.9490204 26.4500337,16.8068571 25.5911766,16.7631429 C24.0108501,16.684898 22.2126868,16.9526939 20.7069317,17.1591429 C20.7719521,17.3736735 20.8175031,17.5988571 20.8366052,17.8387347 C20.8388092,17.8402041 20.8388092,17.8402041 20.840646,17.8424082 C20.8748092,18.3107755 20.6970133,18.7916327 20.3223195,19.0153469 C19.9454215,19.2405306 19.5226052,19.2390612 19.0443195,19.1832245 L19.0652582,19.1876327 L12.9044827,18.3897551 C12.5889317,18.2821224 12.5099521,17.7656327 13.1590541,17.8310204 L19.1284419,18.2406122 C19.1361562,18.2420816 19.1435031,18.2420816 19.1534215,18.243551 C19.5398705,18.288 19.7790133,18.2384082 19.8359521,18.2042449 C19.8917888,18.1697143 19.9149317,18.1807347 19.8954623,17.9166122 C19.8359521,17.253551 19.5589725,16.7535918 19.1075031,16.3124082 C18.6538297,15.8704898 18.0186868,15.5009388 17.3049317,15.1853878 C16.7428909,14.9363265 16.1404419,14.7284082 15.5435031,14.5252653 C14.7243195,14.3474694 13.9686868,14.1637959 13.442646,13.8846122 C12.2961562,13.1153878 11.437299,12.4225714 10.4329725,12.1239184 C9.41689088,11.8219592 8.29391129,11.978449 6.78852353,12.8112245 L4.58040108,14.031551 L7.60550312,20.176898 L8.862197,20.0806531 C9.19317659,20.0549388 9.80554394,20.1273061 10.5442786,20.3719592 C11.2841154,20.6173469 12.155095,20.9780816 13.0675848,21.3362449 C14.8966052,22.0522041 16.8905643,22.7846939 18.5454623,22.4669388 C18.5568501,22.4632653 18.5686052,22.4610612 18.5796256,22.4577551 L28.9395439,19.3790204 C29.1099929,19.3294286 29.2176256,19.1553061 29.1827276,18.9786122 L29.1812582,18.981551 C29.1426868,18.7842857 29.0813399,18.6006122 29.003095,18.432 L29.003095,18.4297959 L29.0027276,18.4297959 Z" id="Path"></path>
                            <path d="M21.4978953,13 C21.6564229,13 21.8204171,12.9125364 21.9898778,12.7376093 C22.1593384,12.5626822 22.3028333,12.3713557 22.4203625,12.1636297 C22.5378916,11.9559038 22.6608872,11.7645773 22.7893493,11.5896501 C22.9178114,11.414723 23.0257743,11.3272595 23.1132378,11.3272595 C23.2389667,11.3272595 23.5013574,11.4283892 23.9004098,11.6306487 C24.2994623,11.8329082 24.5399871,11.9477041 24.6219842,11.9750364 C25.3763574,12.2319606 26.1580629,12.3604227 26.9671008,12.3604227 C28.1915906,12.3604227 29.388748,12.0652332 30.5585731,11.4748542 C31.7557305,10.8790087 32.7328625,10.1465015 33.4899689,9.27733236 C34.2470753,8.40816327 34.7513574,7.36133382 35.0028151,6.13684402 C35.1121445,5.60112974 35.1668092,5.07361516 35.1668092,4.55430029 C35.1668092,4.34657434 35.1449434,4.08418367 35.1012116,3.76712828 C35.0574798,3.45007289 34.9918821,3.1111516 34.9044186,2.75036443 C34.816955,2.38957726 34.6871263,2.08345481 34.5149324,1.83199708 C34.3427385,1.58053936 34.1500454,1.4548105 33.936853,1.4548105 C33.8056576,1.4548105 33.6867619,1.46711006 33.5801657,1.49170918 C33.4735695,1.51630831 33.3738063,1.56004009 33.2808763,1.62290452 C33.1879463,1.68576895 33.1141489,1.74043367 33.0594842,1.78689869 C33.0048195,1.8333637 32.924189,1.90989431 32.8175928,2.01649052 L32.8175928,2.01649052 L32.5757014,2.25838192 C32.362509,2.4606414 32.0522867,2.61506924 31.6450345,2.72166545 C31.2377823,2.82826166 30.7908982,2.89385933 30.3043821,2.91845845 C29.8178661,2.94305758 29.3299834,2.959457 28.8407342,2.96765671 C28.3514849,2.97585641 27.860869,3.00045554 27.3688865,3.04145408 C26.876904,3.08245262 26.4805848,3.15215015 26.1799288,3.25054665 C25.5840833,3.44733965 25.0265031,3.7083637 24.5071883,4.0336188 C23.9878734,4.35887391 23.5218566,4.73879373 23.109138,5.17337828 C22.6964193,5.60796283 22.3711642,6.1122449 22.1333727,6.68622449 C21.8955811,7.26020408 21.7766853,7.86151603 21.7766853,8.49016035 C21.7766853,8.77988338 21.8012845,9.06413994 21.8504827,9.34293003 C21.8614157,9.39759475 21.9051474,9.51785714 21.9816781,9.7037172 C22.0582087,9.88957726 22.096474,9.99344023 22.096474,10.0153061 C22.096474,10.1191691 22.0117436,10.2503644 21.842283,10.4088921 C21.6728224,10.5674198 21.4869623,10.720481 21.2847028,10.8680758 C21.0824434,11.0156706 20.8965833,11.1946975 20.7271227,11.4051567 C20.557662,11.6156159 20.4729317,11.8165087 20.4729317,12.0078353 C20.4729317,12.0461006 20.4770315,12.0829993 20.4852313,12.1185313 C20.493431,12.1540634 20.5016307,12.1800292 20.5098304,12.1964286 C20.5180301,12.212828 20.5330629,12.2401603 20.5549288,12.2784257 C20.5767947,12.316691 20.5931941,12.3467566 20.604127,12.3686224 C20.7407888,12.5982143 20.8651511,12.7608418 20.9772138,12.8565051 C21.0892764,12.9521684 21.2628369,13 21.4978953,13 Z M24.1464011,9.85131195 C24.0042728,9.85131195 23.8812772,9.79938047 23.7774142,9.69551749 C23.6735512,9.59165452 23.6216197,9.46865889 23.6216197,9.32653061 C23.6216197,9.19533528 23.6735512,9.07233965 23.7774142,8.95754373 C24.4443238,8.21956997 25.0880009,7.61962464 25.7084455,7.15770773 C26.3288901,6.69579082 27.0381649,6.32953717 27.8362699,6.05894679 C28.6343748,5.78835641 29.5035439,5.65306122 30.4437772,5.65306122 C30.5859055,5.65306122 30.7089011,5.70499271 30.8127641,5.80885569 C30.916627,5.91271866 30.9685585,6.03571429 30.9685585,6.17784257 C30.9685585,6.31997085 30.916627,6.44296647 30.8127641,6.54682945 C30.7089011,6.65069242 30.5859055,6.70262391 30.4437772,6.70262391 C29.4488792,6.70262391 28.5920097,6.84475219 27.8731686,7.12900875 C27.1543275,7.41326531 26.4204536,7.89431487 25.6715469,8.57215743 C25.5986606,8.64139942 25.4929754,8.744655 25.3544915,8.8819242 L25.1221664,9.11333819 C24.8652422,9.37026239 24.6629827,9.56432216 24.515388,9.69551749 C24.400592,9.79938047 24.2775964,9.85131195 24.1464011,9.85131195 Z" id="ï¬"></path>
                            <path d="M3.93313578,14.6163673 C3.61133986,13.9676327 3.11431945,14.2971429 2.46558476,14.6185714 L0.731707205,15.471551 C0.0829725115,15.7907755 -0.184823407,16.5813061 0.135135777,17.2315102 L2.38476843,21.8005714 C2.70472761,22.4511429 3.49672761,22.7233469 4.14509496,22.4033878 L5.87823782,21.5482041 C6.52733986,21.2289796 7.09158476,21.0357551 6.77236027,20.384449 L3.93313578,14.6163673 Z" id="Path"></path>
                        </g>
                    </g>
                </g>
            </g>
        </g>
    </g>
</svg>